<svg xmlns="http://www.w3.org/2000/svg" width="512" height="512" fill="none" xmlns:v="https://vecta.io/nano"><path fill-rule="evenodd" d="M128 216.348c-4.353-.36-8.7-.81-13-1.348C91 78.018 287 58.5 332.5 109.5 397 106 410 177 397 215c-4.442 0-8.782-.255-13-.736V256c0 70.692-57.308 128-128 128s-128-57.308-128-128v-39.652z" fill="#ff7259"/><path d="M115 215l-7.88 1.38c.607 3.462 3.4 6.122 6.888 6.558L115 215zm13 1.348h8c0-4.162-3.192-7.63-7.34-7.973l-.66 7.973zM332.5 109.5l-5.97 5.326c1.62 1.814 3.975 2.794 6.404 2.662l-.434-7.988zM397 215v8c3.42 0 6.462-2.175 7.57-5.41L397 215zm-13-.736l.907-7.95c-2.265-.258-4.532.462-6.233 1.98a8 8 0 0 0-2.674 5.969h8zm-269.993 8.674c4.423.553 8.87 1.013 13.333 1.383l1.32-15.946c-4.244-.35-8.47-.79-12.67-1.313l-1.984 15.876zM338.47 104.174c-13.234-14.8335-36.28-23.593-61.484-26.9005-25.504-3.3468-54.664-1.3225-81.614 6.8254-26.92 8.1393-52.223 22.579-69.237 44.558-17.188 22.204-25.375 51.424-19.015 87.723l15.76-2.76c-5.64-32.19 1.673-56.78 15.907-75.168 14.408-18.612 36.45-31.55 61.216-39.0367 24.738-7.4794 51.61-9.3334 74.9-6.2768 23.593 3.096 42.1 11.0215 51.626 21.6885l11.94-10.652zm66.1 113.415c7.117-20.802 7.102-50.13-3.432-74.118-5.324-12.125-13.47-23.183-25.067-30.953-11.664-7.816-26.32-11.966-44.003-11.006l.867 15.976c14.567-.8 25.723 2.622 34.23 8.322 8.576 5.746 14.96 14.157 19.324 24.094 8.84 20.136 8.826 45.308 2.943 62.506l15.138 5.18zm-21.475 4.623c4.515.516 9.158.788 13.906.788v-16c-4.137 0-8.174-.237-12.092-.685l-1.814 15.897zM376 214.264V256h16v-41.736h-16zM376 256c0 66.274-53.726 120-120 120v16c75.1 0 136-60.9 136-136h-16zM256 376c-66.274 0-120-53.726-120-120h-16c0 75.1 60.9 136 136 136v-16zM136 256v-39.652h-16V256h16z" fill="#fff"/><path d="M128 176c0-26.5 21.5-48 48-48h160c26.5 0 48 21.5 48 48v80c0 70.692-57.308 128-128 128s-128-57.308-128-128v-80z" fill="#59ffb7"/><g fill-rule="evenodd"><path d="M158.3 338.7c23.48 27.7 58.535 45.3 97.7 45.3 70.692 0 128-57.308 128-128v-80c0-17.095-8.937-32.103-22.393-40.607C366.3 142.804 369 151.586 369 161v80c0 70.692-57.308 128-128 128-31.528 0-60.393-11.4-82.7-30.3z" fill="#000" fill-opacity=".15"/><path d="M115 215c80 10 169-11 199.5-52.5 0 24 35.5 52.5 82.5 52.5 13-38 0-109-64.5-105.5C287 58.5 91 78.018 115 215z" fill="#ff7259"/><path d="M324 139c-30.5 41.5-120.5 69.482-200.5 59.482-2.853-27.987 2.558-51.468 13.646-70.53-18.8 20.856-28.716 49.55-22.146 87.048 80 10 169-11 199.5-52.5 0 24 35.5 52.5 82.5 52.5 1.725-5.04 2.992-10.663 3.742-16.615C355.96 196.33 324 162.27 324 139z" fill-opacity=".15" fill="#000"/></g><path d="M221 273c8.837 0 16-7.163 16-16s-7.163-16-16-16-16 7.163-16 16 7.163 16 16 16zm70 0c8.837 0 16-7.163 16-16s-7.163-16-16-16-16 7.163-16 16 7.163 16 16 16z" fill="#000" fill-opacity=".3"/><path fill-rule="evenodd" d="M256 326c14.36 0 26-9.85 26-22h-52c0 12.15 11.64 22 26 22z" fill="#000" fill-opacity=".3"/></svg>