<?xml version='1.0' encoding='ASCII' standalone='yes'?>
<svg xmlns="http://www.w3.org/2000/svg" viewBox="0 0 4000 4000">
    <defs>
        <style>.cls-1{fill:none}.cls-2,.cls-5{fill:#4ead12}.cls-10,.cls-2,.cls-3,.cls-5,.cls-6,.cls-9{stroke:#333;stroke-width:5px}.cls-10,.cls-2,.cls-3,.cls-6,.cls-9{stroke-miterlimit:10}.cls-3{fill:#f7c394}.cls-4{fill:#ffc9a1}.cls-5{stroke-linecap:round;stroke-linejoin:round}.cls-6{fill:#ffcd98}.cls-7{fill:#3d0c0c}.cls-10,.cls-8{fill:#fff}.cls-9{fill:#10b7e4}.cls-11{fill:#775a42}.cls-12{opacity:0.08}.cls-13{opacity:0.1}.cls-14{opacity:0.05}.cls-15{opacity:0.2}'</style>
    </defs>
    <title>outline+shader</title>
    <g id="outline_shader" data-name="outline+shader">
        <g id="monKeyBody">
            <rect id="frame" class="cls-1" width="4000" height="4000"/>
            <g id="body">
                <path class="cls-2" d="M2304.67,3292.92a204.73,204.73,0,0,1-29.56-2.28c-50.77-7.42-115.16-32.27-196.86-76a25,25,0,0,1,23.59-44.09c75.45,40.37,136.18,64.12,180.5,70.6,28.93,4.23,49.75,1,61.88-9.64,13.61-11.92,12.39-33,8.83-72.39-4.17-46.12-9.36-103.53,19.78-169.51,22.06-50,60.82-97.58,106.32-130.66,24.68-17.94,50.48-31.1,76.69-39.12,29.15-8.92,58.11-11.24,86.08-6.92,34.55,5.35,69.21,20.88,97.6,43.73,32.6,26.24,54.08,59.73,62.13,96.86,6.59,30.41,4.83,66.52-4.71,96.6-12.26,38.65-36.7,66.29-68.82,77.83a102.94,102.94,0,0,1-35,6c-49.4,0-90.4-33.45-95.84-38.08a25,25,0,1,1,32.42-38.06c.43.36,43.66,36.65,81.49,23.06,21.92-7.87,32.8-29.3,38.06-45.89,6.91-21.79,8.25-49,3.5-70.89-7.07-32.63-28.16-55.26-44.61-68.5-21.34-17.18-48.27-29.3-73.9-33.27-28.11-4.34-72.73-1.44-125.72,37.07-38.58,28.05-71.38,68.29-90,110.42-23.91,54.16-19.56,102.32-15.72,144.81,4,43.84,7.71,85.25-25.67,114.5C2359.1,3285,2334.79,3292.92,2304.67,3292.92Z"/>
                <path class="cls-2" d="M1580.05,3154.46a62.49,62.49,0,0,1-62.49-62.27c-.35-95.35,34-193.09,99.3-282.65,56-76.83,132.08-142.11,208.64-179.11A62.5,62.5,0,1,1,1879.89,2743c-58.66,28.35-117.72,79.46-162,140.22-34.53,47.35-75.62,122-75.3,208.54a62.5,62.5,0,0,1-62.27,62.73Z"/>
                <path class="cls-3" d="M1601,3260.17a72.37,72.37,0,0,1-25.27-4.57c-21.18-7.88-38.24-24.19-50.7-48.49a150.3,150.3,0,0,1-15.12-48.05,115.4,115.4,0,0,1,2.11-43.78c5.57-22,17.94-40.42,35.76-53.19a72.5,72.5,0,0,1,111,81.79A72.53,72.53,0,0,1,1601,3260.17Z"/>
                <path class="cls-2" d="M1864.5,3526.24c-1.28,0-2.56,0-3.86-.08a95,95,0,0,1-91.13-98.71c4.64-116.19,33.54-197,54.63-256,6.3-17.61,11.74-32.82,15.66-46.38a95,95,0,1,1,182.53,52.74c-5.55,19.23-12.22,37.88-19.28,57.62-18.85,52.7-40.21,112.44-43.69,199.59A95,95,0,0,1,1864.5,3526.24Z"/>
                <path class="cls-3" d="M1910,3556.61a67.37,67.37,0,0,1-21.26-3.45c-27.72-9.2-93.83-15.48-147.71.23a67.5,67.5,0,1,1-37.78-129.61c46.2-13.47,92.28-15.49,122.79-14.82,39.22.86,76.58,6.57,105.2,16.06A67.51,67.51,0,0,1,1910,3556.61Z"/>
                <path class="cls-2" d="M2135.37,3528.07a95,95,0,0,1-94.76-89.56c-5-87.08-27.4-146.43-47.17-198.81-7.4-19.61-14.39-38.14-20.28-57.27a95,95,0,0,1,181.59-55.91c4.15,13.49,9.85,28.6,16.46,46.1,22.12,58.62,52.42,138.91,59.09,255a95,95,0,0,1-89.4,100.29C2139.05,3528,2137.2,3528.07,2135.37,3528.07Z"/>
                <path class="cls-3" d="M2090,3556.61A67.51,67.51,0,0,1,2068.75,3425c28.62-9.49,66-15.2,105.2-16.06,30.51-.67,76.59,1.35,122.79,14.82A67.5,67.5,0,1,1,2259,3553.39c-53.88-15.71-120-9.43-147.71-.23A67.41,67.41,0,0,1,2090,3556.61Z"/>
                <path class="cls-2" d="M2411.42,3137.38a62.52,62.52,0,0,1-62.26-68.8c5.42-53.52-18.62-122.19-65.95-188.39-44.74-62.6-107-117.39-162.44-143a62.5,62.5,0,1,1,52.42-113.47c37.53,17.33,76.84,43.49,113.66,75.63a638.57,638.57,0,0,1,98.05,108.15c65.71,91.92,97.19,189.11,88.63,273.68A62.51,62.51,0,0,1,2411.42,3137.38Z"/>
                <path class="cls-3" d="M2396.8,3259.89a72.53,72.53,0,0,1-58.59-115.27,72.5,72.5,0,0,1,109.6-83.72c18,12.46,30.73,30.63,36.68,52.55a115.44,115.44,0,0,1,2.88,43.75c-4.06,35.05-23.3,81.66-64.13,97.67A72.45,72.45,0,0,1,2396.8,3259.89Z"/>
                <path class="cls-2" d="M2025.55,2468.72c55.31,3.41,93.41,43.63,127.17,80.31,39.32,42.72,80.12,104.46,119,245.31,39.4,142.77,45.88,220.06,45.88,292,0,153.62-140.68,305.09-320,306.63-175.53,1.51-319-153-319-306.63,0-72.8,12.64-145.29,62.27-292.31,48.16-142.67,92.57-200.23,125.82-235.11C1904.21,2519.59,1956.72,2464.49,2025.55,2468.72Z"/>
                <path class="cls-3" d="M1997.29,2512.77c41-.36,82.22,51.85,113.58,106.22,48.06,83.32,65.36,157.62,70.56,181.37,32.46,148.28,54.24,271.27-6,346.6-59.91,74.89-132.36,85.58-175.41,85.58-47.55,0-118.32-8.27-177.41-81.89-58.83-73.29-34.76-194.73,3.51-350.46,3.93-16,38.3-103.8,95.44-210.33C1939.77,2555.87,1964.38,2513.06,1997.29,2512.77Z"/>
                <path class="cls-3" d="M863.8,1836.78c-109.3,103.92-60.91,310.4,16.55,426.94,110.37,166.07,358.19,267.53,482.59,176,129.94-95.63,107.64-388.85-48.6-538.55C1197.69,1789.37,976.84,1729.31,863.8,1836.78Z"/>
                <path class="cls-4" d="M995.57,1954.6c-64.75,69.33-26.65,197.17,26.33,267.46,75.51,100.15,234.9,154.61,309.6,92.47,78-64.9,53.06-248.18-50.63-336.34C1203.46,1912.36,1062.54,1882.9,995.57,1954.6Z"/>
                <path class="cls-3" d="M3133.19,1832.12c111.1,102,66.32,309.29-9.09,427.16-107.46,168-353.47,273.75-479.46,184.37-131.58-93.35-114.4-386.92,39.2-539.32C2798.52,1790.55,3018.29,1726.64,3133.19,1832.12Z"/>
                <path class="cls-4" d="M3003.49,1952.22c66,68.19,30.1,196.68-21.65,267.88-73.75,101.45-232.17,158.69-307.94,97.86-79.14-63.53-57.39-247.22,44.75-337.18C2794.91,1913.62,2935.29,1881.7,3003.49,1952.22Z"/>
                <path class="cls-5" d="M2500.32,839C2542.64,803.15,2376,763,2353.8,699.51,2327,623,2749.39,826.61,2685.37,960.59c-5,10.51-55.43,94-417.61-23.77C2665.92,1066,2965.92,1340,2964.5,1847.06c-1.09,388.75-348.57,990.75-964.93,996.12-594.62,5.19-966-596.16-964.93-996.12,1.32-488.44,432.22-991,966.09-1028.56C2320.14,796.05,2465.29,868.6,2500.32,839Z"/>
                <path class="cls-6" d="M1999.57,1320.55c19.15-.16,112.39-116.75,268-116.74,223.53,0,482,324.76,482.28,643.25.16,205.85-111.65,252-111.45,275.69.19,21.13,236.88,22.58,236.88,254.71,0,209.25-420.37,512-840.86,524.16-461.31,13.34-910.31-319.74-910.31-497.74,0-232.44,237-260.58,236.85-281.27s-111.76-76.15-111.93-275.55c-.26-318.49,259.27-643.25,482.47-643.25C1903.93,1203.8,1976.84,1320.75,1999.57,1320.55Z"/>
                <path class="cls-7" d="M2598.46,2330.77c32.4-4.6,56,22.77,47.08,55.45-11.75,43.09-35,85.68-67.74,125.82q-11.18,13.73-23.87,27c-115.49,121.69-320.37,213.48-554.36,213.08-234,.4-438.88-91.39-554.37-213.08q-12.67-13.29-23.87-27c-32.77-40.14-56-82.73-67.74-125.83-8.9-32.67,14.68-60,47.08-55.44A4258.57,4258.57,0,0,0,2598.46,2330.77Z"/>
                <path class="cls-7" d="M2001,2770.57h-3c-112.73,0-225.78-21.46-327-62.09-95.65-38.4-178.38-92.6-239.24-156.73-8.78-9.21-17.13-18.66-24.79-28.07-34.94-42.79-58.91-87.41-71.24-132.62-6-21.92-1.43-43.51,12.46-59.24,13.5-15.31,33.55-22.34,55-19.29a4240.21,4240.21,0,0,0,596.31,42.15,4238.47,4238.47,0,0,0,596.3-42.15h0c21.45-3.05,41.49,4,55,19.29,13.88,15.73,18.42,37.32,12.45,59.24-12.32,45.19-36.29,89.82-71.25,132.63-7.71,9.47-16.06,18.92-24.81,28.09-60.83,64.1-143.56,118.3-239.21,156.7C2226.87,2749.11,2113.83,2770.57,2001,2770.57Zm-1.5-36.85c108.65.21,217.49-20.37,314.78-59.43,90.77-36.45,169-87.6,226.25-147.91,8.11-8.51,15.82-17.24,22.95-26,31.68-38.81,53.29-78.85,64.25-119,2.65-9.73,1-18.9-4.53-25.17-5.23-5.92-13.1-8.47-22.18-7.18h0a4275.86,4275.86,0,0,1-1203,0c-9.08-1.29-17,1.26-22.18,7.18-5.53,6.27-7.18,15.44-4.53,25.17,11,40.19,32.57,80.24,64.24,119,7.07,8.68,14.78,17.41,22.93,26,57.27,60.34,135.5,111.49,226.27,147.93,96.85,38.89,205.16,59.44,313.29,59.44Z"/>
                <path class="cls-8" d="M2645.54,2386.21c-11.75,43.09-35,85.69-67.74,125.83q-36.18,5-72.45,9.29-6.66.81-13.33,1.58a4258.42,4258.42,0,0,1-968,1.93q-8.94-1-17.87-2.06h0q-42.43-4.94-84.78-10.74c-32.77-40.14-56-82.73-67.74-125.83-8.9-32.67,14.68-60,47.08-55.44q7.83,1.11,15.65,2.19,7.37,1,14.74,2a4258.54,4258.54,0,0,0,1153.33-2.23l10.13-1.41,3.94-.56C2630.85,2326.17,2654.44,2353.54,2645.54,2386.21Z"/>
                <path class="cls-8" d="M2553.93,2539.06c-48.1,50.68-111.69,96.17-186.44,132a795,795,0,0,1-90.22,36.51c-84.24,28.31-178.35,44.76-277.7,44.59a874.36,874.36,0,0,1-243.1-33.8s0,0,0,0a814.34,814.34,0,0,1-94.37-33.52c-88-37.57-162.38-88.32-216.88-145.75q40.58,5.33,81.21,9.87c5.18.57,10.36,1.15,15.55,1.7a4257.87,4257.87,0,0,0,932.16-1.87q5.52-.62,11-1.25Q2519.57,2543.58,2553.93,2539.06Z"/>
                <path class="cls-8" d="M1758.29,1403.06c154.89,18,266.48,208.75,250,376.77-16.38,167.34-162.69,342-329.88,323-151.8-17.3-250.26-186.22-253.5-328.16C1420.6,1584.51,1585.75,1383,1758.29,1403.06Z"/>
                <ellipse class="cls-9" cx="1768.83" cy="1790.92" rx="210.18" ry="180.94" transform="translate(-326.31 3186.1) rotate(-79.02)"/>
                <ellipse cx="1779.83" cy="1823.1" rx="105.94" ry="118.46"/>
                <ellipse class="cls-10" cx="1833.61" cy="1726.3" rx="40.43" ry="42.42" transform="translate(-405.62 2878.73) rotate(-70.51)"/>
                <path class="cls-8" d="M2234,1398.91c-154.54,20.68-262.79,213.36-243.4,381.08,19.3,167,168.63,339.1,335.47,317.13,151.47-19.94,247-190.55,247.73-332.52C2574.78,1574.44,2406.14,1375.87,2234,1398.91Z"/>
                <ellipse class="cls-9" cx="2230.21" cy="1786.89" rx="180.94" ry="210.18" transform="translate(-322.43 502.04) rotate(-11.98)"/>
                <ellipse cx="2219.77" cy="1819.26" rx="105.94" ry="118.46" transform="translate(-31.41 39.02) rotate(-1)"/>
                <ellipse class="cls-10" cx="2274.24" cy="1726.33" rx="42.42" ry="40.43" transform="translate(-460.46 905.49) rotate(-20.49)"/>
                <path class="cls-11" d="M1784.05,2081.38c0,75.28,98.57,166.65,215.68,165.63,107.93-.94,213.18-91.24,213.18-165.41,0-59.68-124.17-112.16-213.18-111.39C1917.1,1970.93,1784.05,2010.78,1784.05,2081.38Z"/>
            </g>
            <g id="shader-2" data-name="shader">
                <g class="cls-12">
                    <path d="M1134.51,2454.76c-97.43-32.35-195.32-102.51-254.16-191-77.46-116.54-125.85-323-16.55-426.94,45.17-42.94,107.55-59.13,173.62-56-.29,3.54-.55,7.07-.79,10.61-50.59,4.15-97.1,21.38-132.83,55.35-109.3,103.92-60.91,310.4,16.55,426.94,50.31,75.69,129.16,138,211.87,174.64C1132.93,2450.48,1133.7,2452.61,1134.51,2454.76Z"/>
                </g>
                <g class="cls-12">
                    <path d="M3124.1,2259.28c-60.69,94.85-165.55,169.87-268,201.12.78-1.77,1.53-3.53,2.26-5.3,88.21-36.93,173.43-104,225.78-185.82,75.41-117.87,120.19-325.17,9.09-427.16-35.38-32.48-80.71-48.9-129.86-52.74q-.23-5.24-.5-10.44c64.45-3.41,125.42,11.93,170.36,53.18C3244.29,1934.11,3199.51,2141.41,3124.1,2259.28Z"/>
                </g>
                <g class="cls-13">
                    <path d="M2212.91,2101.6c0,74.17-105.25,164.47-213.18,165.41-117.11,1-215.68-90.35-215.68-165.63a54.18,54.18,0,0,1,.71-8.78c9,72.83,103.62,155.38,215,154.41,102.38-.89,202.34-82.18,212.35-153.85A43.67,43.67,0,0,1,2212.91,2101.6Z"/>
                </g>
                <path class="cls-14" d="M1510.91,2523.35l-4.79-.56h0q-42.43-5-84.78-10.75c-32.77-40.14-56-82.73-67.74-125.82-8.9-32.68,14.68-60,47.08-55.45,5.22.74,10.43,1.48,15.65,2.19l2.47.34C1438.39,2399.2,1468.2,2463.64,1510.91,2523.35Z"/>
                <path class="cls-14" d="M1735.54,2712q-38.07-12-73.46-27.2c-88-37.57-162.38-88.32-216.88-145.75q40.58,5.33,81.21,9.87l2.48.27C1581.32,2611,1649.11,2666.63,1735.54,2712Z"/>
                <path class="cls-14" d="M2645.54,2386.22c-11.75,43.08-35,85.68-67.74,125.82q-36.18,5-72.45,9.29-6.66.81-13.33,1.58l-3.14.36c42.55-59.77,72.34-124.18,92-190.06l3.48-.47,10.12-1.41,3.94-.56C2630.85,2326.17,2654.44,2353.54,2645.54,2386.22Z"/>
                <path class="cls-14" d="M2553.93,2539.06c-48.1,50.68-111.69,96.17-186.44,132a795,795,0,0,1-90.22,36.52q-5.62,1.89-11.32,3.71c85.48-45.39,152.78-100.72,205.06-162.16l3.11-.34,11-1.26Q2519.57,2543.58,2553.93,2539.06Z"/>
                <g class="cls-13">
                    <path d="M2333.57,957.05l1.81.51q-5.76-1.83-11.62-3.74Q2328.68,955.41,2333.57,957.05Z"/>
                    <path d="M2565.16,861.34c-53.4,62.41-211.81-40-531.22-17.54-533.87,37.53-942,531.82-943.3,1020.27-.3,106.94,28.59,233.52,78.72,353.81,58.8-73.84,151.53-99.67,178.59-114.16,7.94,8.57,13,14.51,13,18.89,0,.12,0,.24,0,.36a2,2,0,0,1,0,.26,3.42,3.42,0,0,1-.44,1.09l-.17.28a9,9,0,0,1-1.66,1.78l-.32.26a37.91,37.91,0,0,1-6.52,4l-1.61.79c-3.74,1.83-8.36,3.82-13.67,6l-1.23.51c-5.39,2.24-11.47,4.71-18.08,7.49l-3.09,1.3c-4.16,1.77-8.51,3.65-13,5.67l-3.4,1.54-1.72.79c-1.73.79-3.48,1.61-5.24,2.44-2.35,1.12-4.74,2.27-7.15,3.46l-1.81.9-1.82.91c-1.21.6-2.44,1.23-3.67,1.87q-4.61,2.37-9.3,4.94c-.63.34-1.25.68-1.88,1q-3.77,2.08-7.56,4.31-1.9,1.1-3.81,2.25l-.11.06q-4.71,2.85-9.44,5.89l-1.91,1.24c-1.91,1.26-3.83,2.54-5.74,3.84-.64.43-1.27.87-1.91,1.32q-4.77,3.33-9.51,6.88-3.8,2.87-7.54,5.87-2.8,2.27-5.6,4.62c-.62.51-1.24,1-1.85,1.58l-1.84,1.6q-1.85,1.59-3.66,3.27l-1.82,1.67-1.81,1.69c-1.15,1.08-2.29,2.18-3.42,3.28l-1.95,1.93c-1.19,1.18-2.36,2.37-3.52,3.59l-1.74,1.83q-3.48,3.67-6.85,7.55-1.68,1.93-3.33,3.92l-1.65,2q-1.95,2.37-3.82,4.8-1.74,2.23-3.41,4.53l-.3.39-.54.75-.41.57c-.31.44-.62.89-.94,1.33-.57.8-1.14,1.59-1.7,2.39-.87,1.25-1.73,2.51-2.56,3.79-.13.18-.25.35-.36.53l-.57.85-.32.5-1,1.61-1,1.59c-.35.54-.69,1.09-1,1.64-1,1.69-2.07,3.4-3.08,5.13-.15.25-.29.5-.43.75q-1.49,2.58-2.92,5.22a.2.2,0,0,0,0,.08q-.74,1.35-1.44,2.7c-.46.86-.9,1.73-1.35,2.6l-.08.15c-76.27-147.6-117-302.56-116.59-435.33,1.32-488.45,432.22-991,966.09-1028.57,319.41-22.45,464.56,50.1,499.59,20.46C2542.64,803.15,2376,763,2353.81,699.51c-8.57-24.46,28.82-20.27,81.55,1.13-20-2.88-31,1.83-25.55,15.87C2429.19,766.9,2604.32,815.59,2565.16,861.34Z"/>
                </g>
                <path class="cls-14" d="M1390.82,2108.61c0,3.67-23.81,15.25-36.41,20.62,4.23-2.41,6.58-4.54,6.58-6.6v0c-.18-20.61-111.76-76.15-111.93-275.54v-.48c0-1.83,0-3.66,0-5.48v-.52q0-3,.1-5.95C1259.43,2012.06,1390.65,2089,1390.82,2108.61Z"/>
                <path class="cls-12" d="M1637.84,3250.1a72.31,72.31,0,0,1-62.11,5.5c-21.18-7.88-38.24-24.19-50.7-48.49a150.3,150.3,0,0,1-15.12-48.05,115.4,115.4,0,0,1,2.11-43.78,98.25,98.25,0,0,1,5.88-16.76,63,63,0,0,1-.34-6.33c-.33-90.45,30.55-183,89.47-268.77l.85.32q15.11,5.84,30.49,11.32c-49.47,78.73-85.32,140.89-85,223.4-17,21.83-12.63,82.94.49,114.5C1581,3238.14,1630.47,3249.78,1637.84,3250.1Z"/>
                <path class="cls-14" d="M2644.33,2128.38c-12.95-5.65-34.48-16.28-34.45-19.77.16-18.89,121.63-90.8,139.95-254.23-2.45,199.63-111.6,244.95-111.4,268.37C2638.45,2124.73,2640.55,2126.54,2644.33,2128.38Z"/>
                <g class="cls-13">
                    <path d="M1974.07,3510.34a67.43,67.43,0,0,1-85.32,42.82c-27.72-9.2-93.83-15.48-147.71.23a67.52,67.52,0,0,1-85.66-74.81,69.07,69.07,0,0,0,2,8.89,67.52,67.52,0,0,0,83.7,45.92c53.88-15.71,120-9.43,147.71-.23a67.51,67.51,0,0,0,88-54.08A67.09,67.09,0,0,1,1974.07,3510.34Z"/>
                </g>
                <g class="cls-13">
                    <path d="M2342.66,3507.47a67.45,67.45,0,0,1-83.7,45.92c-53.88-15.71-120-9.43-147.71-.23a67.51,67.51,0,0,1-88-74.08,67.45,67.45,0,0,0,88,54.08c27.72-9.2,93.83-15.48,147.71.23a67.45,67.45,0,0,0,83.7-45.92,69.07,69.07,0,0,0,2-8.89A67,67,0,0,1,2342.66,3507.47Z"/>
                </g>
                <path class="cls-12" d="M2487.37,3157.2c-4.06,35.05-23.3,81.66-64.13,97.67A72.32,72.32,0,0,1,2362,3251c10.47-1.34,56.85-14.72,82.77-77,13.12-31.56,17.35-93,.34-114.84.29-78.53-32-149-77.79-223.56q14.76-5.32,29.3-11c57.7,86.8,84.94,177.3,76.9,256.66-.19,1.87-.47,3.7-.81,5.51a96.49,96.49,0,0,1,11.77,26.77A115.44,115.44,0,0,1,2487.37,3157.2Z"/>
                <g class="cls-12">
                    <path d="M1959.44,3433.13c0,.63,0,1.27-.08,1.9q-.15,3.73-.58,7.39a67.23,67.23,0,0,0-27.53-17.4c-28.62-9.49-66-15.2-105.2-16.06a459.31,459.31,0,0,0-55.71,2.13c.2-3.39.43-6.74.68-10.07a462.82,462.82,0,0,1,55-2.06c39.22.86,76.58,6.57,105.2,16.06A67.16,67.16,0,0,1,1959.44,3433.13Z"/>
                    <path d="M2229.17,3411A462.3,462.3,0,0,0,2174,3409c-39.22.86-76.58,6.57-105.2,16.06a67.16,67.16,0,0,0-27.8,17.69c-.15-1.39-.26-2.79-.34-4.2-.1-1.71-.2-3.4-.32-5.09a67.14,67.14,0,0,1,28.46-18.4c28.62-9.49,66-15.2,105.2-16.06a462.57,462.57,0,0,1,54.36,2Q2228.76,3405.95,2229.17,3411Z"/>
                </g>
                <g class="cls-12">
                    <path d="M1783.72,3308.76c48.55,44.14,110.63,75,179.06,82.49q-.87,7.27-1.54,14.83c-69-7.92-131.44-39.58-180-84.59Q1782.44,3315,1783.72,3308.76Z"/>
                    <path d="M2216.32,3319.91c-47.76,44.29-109.47,75.84-178.59,85.21q-.87-7.51-1.91-14.74c68.6-8.88,130-39.6,177.8-83Q2215,3313.56,2216.32,3319.91Z"/>
                </g>
                <g class="cls-13">
                    <path d="M2317.59,3086.38c0,153.62-140.68,305.09-320,306.63-175.53,1.51-319-153-319-306.63,0-10,.24-20.06.79-30.27,11.56,146.84,150.22,288.35,318.23,286.9,172.85-1.48,309.81-142.31,319.43-290.07C2317.44,3064.35,2317.59,3075.43,2317.59,3086.38Z"/>
                </g>
                <g class="cls-12">
                    <path d="M2175.41,3147c-59.91,74.88-132.36,85.57-175.41,85.57-47.55,0-118.32-8.27-177.41-81.89-27.71-34.52-37-79.73-35.13-134.17,1.64,43,12,79.3,35.13,108.17,59.09,73.62,129.86,81.89,177.41,81.89,43,0,115.5-10.69,175.41-85.57,25.37-31.72,36.2-71.88,37.82-118.83C2215,3060.35,2205.35,3109.54,2175.41,3147Z"/>
                </g>
                <path class="cls-13" d="M2396.63,2824.52c-35,13.72-71,26-107.74,36.45q-8.25,2.36-16.56,4.59c-77.34,20.83-157.6,33.74-237.88,36.06-102.94,3-205.27-11.3-302.13-37.25q-6.52-1.76-13-3.57c-38.43-10.76-76-23.34-112.26-37.39q-10.86,15.81-20.44,31.9a1242.57,1242.57,0,0,0,121.21,42.21l1.17-1.73c-.18.64-.36,1.28-.53,1.92,103.84,30.14,214.56,47.13,326,43.91,88.47-2.56,176.94-18,261.49-42.69l1.36-.4a1195,1195,0,0,0,119.15-42Q2407.24,2840.48,2396.63,2824.52Z"/>
                <g class="cls-15">
                    <path d="M2352.6,3244.86c-21.27,18.38-65.08,13.14-91.57,9.31q5.26-7.34,10.07-14.94,5.79,1.14,11.24,1.94c26.64,3.89,46.4,1.46,58.83-7.25A71.17,71.17,0,0,0,2352.6,3244.86Z"/>
                    <path d="M2711.22,3080.89a48.07,48.07,0,0,0,6.4-2.83,51.65,51.65,0,0,1-21.4,14.83c-37.83,13.59-81.06-22.69-81.49-23.06a25,25,0,0,0-23.13-5,24.27,24.27,0,0,1,2.89-4.19,25,25,0,0,1,35.24-2.82C2630.16,3058.2,2673.39,3094.48,2711.22,3080.89Z"/>
                    <path d="M2796.94,3050.12c-9.47,29.84-26.19,53.12-48.11,67.49,14.6-14.05,25.94-32.88,33.11-55.49,9.54-30.08,11.3-66.18,4.71-96.59-8.05-37.13-29.53-70.63-62.13-96.87-28.39-22.85-63.05-38.38-97.6-43.73-28-4.32-56.93-2-86.08,6.92-26.21,8-52,21.19-76.69,39.12-1.26.92-2.52,1.84-3.77,2.78q9.16-7.78,18.77-14.78c24.68-17.93,50.48-31.09,76.69-39.12,29.15-8.92,58.11-11.24,86.08-6.92,34.55,5.35,69.21,20.88,97.6,43.73,32.6,26.24,54.08,59.74,62.13,96.87C2808.24,2983.94,2806.48,3020,2796.94,3050.12Z"/>
                </g>
                <path class="cls-15" d="M2212.91,2081.6c0,74.17-105.25,164.47-213.18,165.41-117.11,1-215.68-90.35-215.68-165.63a55.09,55.09,0,0,1,.79-9.31c42.18,52.17,123.35,95.66,214.39,94.95,85.09-.67,168.69-45.29,211.9-97.87A45.3,45.3,0,0,1,2212.91,2081.6Z"/>
                <path class="cls-14" d="M1834.52,1427a214.27,214.27,0,0,0-31.9-6.17c-175.15-20.17-342.8,182.73-338.41,374.18,2.47,107.25,59.36,229.79,152.7,291.65-116.4-48.78-189.2-190.33-192-312-4.33-190.11,160.82-391.59,333.36-371.55A217.6,217.6,0,0,1,1834.52,1427Z"/>
                <path class="cls-14" d="M2573.77,1764.6c-.66,123.27-72.75,268.13-190.88,317.21,95.29-61.62,152.08-188.08,152.66-297.55,1-190.6-168-389.61-340.57-366.52a211.81,211.81,0,0,0-45.38,11.34c26-15.6,54.29-26.14,84.37-30.17C2406.14,1375.87,2574.78,1574.44,2573.77,1764.6Z"/>
                <path class="cls-13" d="M1862.25,1605.54q-6.51-1.85-13.25-3.16c-99.1-19.24-197.56,58.49-219.9,173.6-16.75,86.35,14.07,169.22,72.35,213.35-81.88-32-130.23-129.93-110.25-232.89,22.12-114,119.58-190.89,217.68-171.85A158.12,158.12,0,0,1,1862.25,1605.54Z"/>
                <path class="cls-13" d="M2295.09,1986.4c60.86-43.65,92.6-129.07,73.87-217.3-24.16-113.85-123.21-189.28-221.22-168.48a157.39,157.39,0,0,0-17.52,4.78,158.17,158.17,0,0,1,56.34-24.11c97.76-20.75,196.54,54.48,220.65,168C2429.51,1854.39,2380.05,1955.46,2295.09,1986.4Z"/>
                <path class="cls-13" d="M2749.41,1798.06q0,9.7-.31,18.94c-15.7-308.54-265-613.19-481.5-613.19-155.64,0-248.88,116.58-268,116.74-22.73.2-95.64-116.74-268-116.74-215.85,0-465.69,303.73-481.65,611.81l-.18,3.62c0,1.22-.11,2.43-.16,3.65s-.1,2.42-.14,3.63q-.78-13.71-.81-28.46c-.26-318.49,259.27-643.25,482.47-643.26,172.41,0,245.31,117,268,116.75,19.15-.17,112.39-116.75,268-116.75C2490.66,1154.81,2749.17,1479.57,2749.41,1798.06Z"/>
                <path class="cls-12" d="M2875.31,2377.46c0,209.26-420.37,512-840.86,524.16-461.31,13.34-910.31-319.74-910.31-497.74q0-7.14.3-14c38.59,182.8,468.4,486,909.44,473.26,406.19-11.75,812.27-294.09,841-502.25Q2875.31,2369,2875.31,2377.46Z"/>
                <path class="cls-13" d="M2964.5,1847.07c-.36,127.74-38.12,278.51-110.54,423.57-58.2-126.52-215.38-130.67-215.53-147.89,0-3.44,2.3-7.34,6.3-12.14,29.88,12.38,135.89,21.8,193.55,102.09,59.3-132.15,86.52-259.16,86.84-374.86,1.43-510.11-312.88-784.54-713.42-914.5,35.09,11.39,34.68,6.38,56.06,13.48C2665.92,1066,2965.92,1340,2964.5,1847.07Z"/>
            </g>
        </g>
    </g>
<svg viewBox="0 0 4e3 4e3">
<defs>
    <style>.cls-17{fill:red}'</style>
</defs>
    <title>empty</title>
	<g id="empty"/>
</svg><svg viewBox="0 0 4e3 4e3">
<defs>
<style>.cls-18{fill:#4b4bb2}.cls-19{fill:#333}.cls-20{fill:#5252cc}.cls-21{fill:#f26d6d}.cls-22{opacity:0.2}'</style>
</defs>
<title>hand_neck9_1</title>
<path class="cls-18" d="M1979.58,2956.28l-18-28.08-18.22-28.36,4.93.31c9.14.58,18.59,1,28.09,1.34q3.15.11,6.31.18c8.24.22,16.67.34,25.08.34,8.92,0,17.91-.13,26.71-.39,1.84,0,3.67-.11,5.5-.18,9-.31,18-.76,26.89-1.33l5.18-.33-39.59,56.77Z"/>
<path class="cls-19" d="M2067,2902.61,2031.12,2954l-30.32-.15h-.09l-19.76-.1-17.3-26.94-15.55-24.2q14.13.88,28.16,1.34,3.16.11,6.33.18,12.62.35,25.14.34c9,0,17.91-.13,26.79-.39q2.76-.07,5.52-.18,13.44-.46,26.95-1.33m10-5.66-10.36.67c-8.83.57-17.85,1-26.81,1.32l-5.48.18c-8.79.26-17.75.39-26.65.39-8.39,0-16.8-.12-25-.34-2.12-.05-4.21-.11-6.31-.18-9.47-.31-18.89-.76-28-1.33l-9.86-.62,5.34,8.31,15.55,24.2,17.3,26.94,1.47,2.28,2.71,0,19.76.1h.12l30.29.15h2.63l1.5-2.15,35.87-51.43L2077,2897Z"/>
<path class="cls-20" d="m2012.5 3324.8a24.28 24.28 0 0 1-15.75-5.71l-51.36-43.72a31.52 31.52 0 0 1-11.1-28.52l44.3-288.88 54.75 0.43 50.38 289.14a31.49 31.49 0 0 1-9.58 27.85l-44.93 42.84a24 24 0 0 1-16.71 6.57z"/>
<path class="cls-19" d="M1980.71,2960.45l50.5.39,50,287.08a28.88,28.88,0,0,1-8.84,25.63l-44.93,42.83a22.07,22.07,0,0,1-29.12.77L1947,3273.43a29,29,0,0,1-10.24-26.27l44-286.71m-4.29-5-.66,4.28-44,286.71a34,34,0,0,0,11.94,30.83L1995.1,3321a27.07,27.07,0,0,0,35.81-1l44.93-42.84a34,34,0,0,0,10.32-30l-50-287.13-.71-4.11-4.17,0-50.51-.39-4.32,0Z"/>
<path class="cls-21" d="m1945.3 3275.3-0.06-0.06c-6-5.95-7.54-10.39-8.16-13.59l-0.26-1.31 126.6-125.58 14.21 77.85-95.55 94z"/>
<path class="cls-19" d="M2061.8,3139.84l13.12,71.88-93,91.47-35-29.76c-6-5.88-7-9.91-7.46-12.28l122.28-121.31m3.22-10.23-6.74,6.69L1936,3257.6l-1.9,1.88.51,2.62c.69,3.55,2.32,8.46,8.87,14.89l.13.13.13.11,35,29.77,3.49,3,3.26-3.21,93-91.47,1.89-1.86-.48-2.61L2066.72,3139l-1.7-9.34Z"/>
<polygon class="cls-21" points="1960.6 3077 2038.6 2988.8 2053.1 3071.9 1944 3182.9"/>
<path class="cls-19" d="m2037.1 2994.4 13.34 76.76-102.71 104.48 15.23-97.46 74.14-83.78m3.15-11.1-6.89 7.79-74.14 83.78-1 1.09-0.23 1.45-15.23 97.46-2.4 15.37 10.91-11.1 102.75-104.48 1.8-1.83-0.44-2.53-13.36-76.75-1.78-10.25z"/>
<polygon class="cls-21" points="1978.5 2957.9 2015.8 2958.2 1971 3012.8"/>
<path class="cls-19" d="M1980.71,2960.45l29.81.24-35.85,43.65,6-43.89m-4.36-5-.6,4.35-6,43.89-2.41,17.53,11.22-13.67,35.85-43.64,6.65-8.09-10.47-.09-29.81-.24-4.4,0Z"/>
<path class="cls-21" d="M1979.58,2956.28l-19-29.63,16.61-19.87,4.28-5.14,1.22,0c8.23.22,16.66.34,25.07.34,8.92,0,17.91-.13,26.71-.39,1.84,0,3.67-.11,5.5-.18l5.41-.21-43.43,55.16Z"/>
<path class="cls-19" d="M2040,2903.94l-35.14,44.63-4.19,5.32-19.76-.1-17.3-26.94,15.43-18.47,3.51-4.21q12.62.35,25.14.34c9,0,17.91-.13,26.79-.39q2.76-.07,5.52-.18m10.62-5.41-10.81.41c-1.82.07-3.65.13-5.47.18-8.79.26-17.75.39-26.65.39-8.39,0-16.8-.12-25-.34l-2.42-.07-1.55,1.87-3.51,4.21-15.43,18.46-2.35,2.82,2,3.09,17.3,26.94,1.47,2.28,2.71,0,19.76.1h2.44l1.52-1.92,4.19-5.32L2044,2907l6.69-8.5Z"/>
<g class="cls-22">
<path class="cls-19" d="M1980.93,2956.29a2.53,2.53,0,0,1-2.09-1.15l-17.3-26.94L1946,2904a2.5,2.5,0,0,1,2.11-3.85h.15c9.14.58,18.59,1,28.09,1.34a2.51,2.51,0,0,1,2,1.15l32,49.8a2.5,2.5,0,0,1-2.07,3.85l-7.48.1Z"/>
<path class="cls-19" d="M1948.1,2902.65q14.13.88,28.16,1.34l2.82,4.39,25.82,40.19,3.35,5.22-7.45.1h-.09l-19.76-.1-17.3-26.94-15.55-24.2m0-5a5,5,0,0,0-4.21,7.7l15.55,24.2,17.3,26.94a5,5,0,0,0,4.18,2.3l19.76.1h.19l7.44-.1a5,5,0,0,0,4.15-7.7l-3.35-5.22-25.83-40.19-2.82-4.39a5,5,0,0,0-4-2.3c-9.47-.31-18.89-.76-28-1.33Z"/>
<path class="cls-19" d="M2012.47,3324.75a24.29,24.29,0,0,1-15.75-5.7l-16.39-14-35-29.76a31.54,31.54,0,0,1-11.1-28.53s11-71.57,11-71.6l33-215.14a2.5,2.5,0,0,1,2.47-2.12l27.28.22a2.53,2.53,0,0,1,1.89.88,2.49,2.49,0,0,1,.56,2s-32.93,214.9-32.94,214.93l-11,71.57a26.57,26.57,0,0,0,9.39,24l35,29.75,16.39,14,.39.31a2.51,2.51,0,0,1,0,3.93A24.4,24.4,0,0,1,2012.47,3324.75Z"/>
<path class="cls-19" d="M1980.7,2960.44l27.26.22L1975,3175.58h0l-11,71.57a29,29,0,0,0,10.24,26.27l35,29.76,16.39,14,.48.39a22.09,22.09,0,0,1-27.78-.39l-16.39-14-35-29.76a29.06,29.06,0,0,1-10.25-26.27l11-71.57h0l33-215.14m0-5a5,5,0,0,0-4.94,4.24l-33,215.14a.68.68,0,0,0,0,.14l-11,71.44a34.08,34.08,0,0,0,12,30.84l35,29.76,16.39,14a27.1,27.1,0,0,0,34.15.48,5,5,0,0,0-.07-7.85l-.32-.26-16.37-13.95-35-29.76a24.12,24.12,0,0,1-8.54-21.75l11-71.52a.68.68,0,0,0,0-.14l32.92-214.79a5,5,0,0,0-4.9-5.76l-27.26-.22Z"/>
</g>
</svg></svg>
