<svg xmlns="http://www.w3.org/2000/svg" viewBox="0 0 512 512" fill="none"><path fill="#fff" d="M0 0h512v512H0z"/><path d="M128 176c0-26.5 21.5-48 48-48h160c26.5 0 48 21.5 48 48v80c0 70.692-57.308 128-128 128h0c-70.692 0-128-57.308-128-128v-80z" fill="#59ffb7"/><g fill-rule="evenodd"><path d="M158.3 338.7c23.48 27.71 58.535 45.3 97.7 45.3 70.692 0 128-57.308 128-128v-80c0-17.095-8.937-32.103-22.393-40.607C366.3 142.804 369 151.586 369 161v80c0 70.692-57.308 128-128 128-31.528 0-60.393-11.4-82.7-30.3z" fill="#000" fill-opacity=".15"/><path d="M115 215c80 10 169-11 199.5-52.5 0 24 35.5 52.5 82.5 52.5 13-38 0-109-64.5-105.5C287 58.5 91 78.018 115 215z" fill="#ff7259"/><path d="M324 139c-30.5 41.5-120.5 69.482-200.5 59.482-2.853-27.987 2.558-51.468 13.646-70.53-18.8 20.856-28.716 49.55-22.146 87.048 80 10 169-11 199.5-52.5 0 24 35.5 52.5 82.5 52.5 1.725-5.04 2.992-10.663 3.742-16.615C355.96 196.33 324 162.27 324 139z" fill-opacity=".15" fill="#000"/></g><path d="M221 273c8.837 0 16-7.163 16-16s-7.163-16-16-16-16 7.163-16 16 7.163 16 16 16zm70 0c8.837 0 16-7.163 16-16s-7.163-16-16-16-16 7.163-16 16 7.163 16 16 16z" fill="#000" fill-opacity=".3"/><path fill-rule="evenodd" d="M256 326c14.36 0 26-9.85 26-22h-52c0 12.15 11.64 22 26 22z" fill="#000" fill-opacity=".3"/></svg>