<?xml version="1.0" encoding="UTF-8"?>
<svg width="177px" height="59px" viewBox="0 0 177 59" version="1.1" xmlns="http://www.w3.org/2000/svg" xmlns:xlink="http://www.w3.org/1999/xlink">
    <!-- Generator: Sketch 52.5 (67469) - http://www.bohemiancoding.com/sketch -->
    <title>Vert Logo</title>
    <desc>Created with Sketch.</desc>
    <g id="Page-1" stroke="none" stroke-width="1" fill="none" fill-rule="evenodd">
        <g id="NanoCrawler" transform="translate(-167.000000, -285.000000)">
            <g id="Vert-Logo" transform="translate(166.000000, 276.000000)">
                <text id="CRAWLER" font-family="Nunito-Light, Nunito" font-size="34" font-weight="300" letter-spacing="2" fill="#FFFFFF">
                    <tspan x="0" y="67">CRAWLER</tspan>
                </text>
                <text id="NANO" font-family="Nunito-Light, Nunito" font-size="33" font-weight="300" letter-spacing="2" fill="#FFFFFF">
                    <tspan x="77" y="33">NAN</tspan>
                    <tspan x="155.27" y="33">O</tspan>
                </text>
                <g id="logo" transform="translate(1.000000, 9.000000)" fill="#4A90E2">
                    <circle id="Oval" cx="4" cy="20" r="4"></circle>
                    <path d="M52.0559441,2.51547035e-15 C49.8741259,2.51547035e-15 48.027972,1.76223776 48.027972,4.02797203 C48.027972,7.21678322 47.5244755,8.05594406 44,8.05594406 L43.6643357,8.05594406 C41.6503497,8.22377622 40.0559441,9.9020979 40.0559441,12 L40.0559441,12.0839161 C40.0559441,15.1888112 39.4685315,15.9440559 36.027972,15.9440559 C35.8601399,15.9440559 35.6923077,15.9440559 35.6083916,16.027972 C33.5944056,16.2797203 32,17.958042 32,19.972028 C32,22.1538462 33.7622378,24 36.027972,24 C38.1258741,24 39.8881119,22.3216783 39.972028,20.3076923 L39.972028,19.972028 C39.972028,17.1188811 40.8951049,16.027972 43.9160839,15.9440559 L44,15.9440559 C46.0979021,15.9440559 47.8601399,14.2657343 47.9440559,12.1678322 L47.9440559,11.9160839 C47.9440559,8.97902098 48.8671329,7.88811189 51.972028,7.88811189 C54.1538462,7.88811189 56,6.12587413 56,3.86013986 C56,1.76223776 54.2377622,0 52.0559441,0 Z M28.3916084,8.05594406 L28.0559441,8.05594406 C24.5314685,8.05594406 24.027972,7.21678322 24.027972,4.02797203 C24.027972,1.84615385 22.2657343,2.66453526e-15 20,2.66453526e-15 C17.8181818,2.94403196e-15 15.972028,1.76223776 15.972028,4.02797203 C15.972028,7.21678322 15.4685315,7.97202797 11.9440559,7.97202797 L11.6083916,7.97202797 C9.59440559,8.13986014 8,9.81818182 8,11.9160839 C8,14.0979021 9.76223776,15.9440559 12.027972,15.9440559 C14.1258741,15.9440559 15.8881119,14.2657343 15.972028,12.2517483 L15.972028,12 C15.972028,9.06293706 16.8951049,7.97202797 20,7.97202797 C23.1048951,7.97202797 24.027972,9.06293706 24.027972,11.9160839 C24.027972,14.0979021 25.7902098,15.9440559 28.0559441,15.9440559 C30.3216783,15.9440559 32.0839161,14.1818182 32.0839161,11.9160839 C32,9.9020979 30.4055944,8.22377622 28.3916084,8.05594406 Z" id="Shape" fill-rule="nonzero"></path>
                </g>
            </g>
        </g>
    </g>
</svg>