<?xml version="1.0" encoding="UTF-8"?>
<svg width="179px" height="59px" viewBox="0 0 179 59" version="1.1" xmlns="http://www.w3.org/2000/svg" xmlns:xlink="http://www.w3.org/1999/xlink">
    <!-- Generator: Sketch 52.5 (67469) - http://www.bohemiancoding.com/sketch -->
    <title>Vert Logo</title>
    <desc>Created with Sketch.</desc>
    <g id="Page-1" stroke="none" stroke-width="1" fill="none" fill-rule="evenodd">
        <g id="NanoCrawler" transform="translate(-167.000000, -285.000000)">
            <g id="Vert-Logo" transform="translate(166.000000, 285.000000)">
                <text id="CRAWLER" font-family="Nunito-Light, Nunito" font-size="34" font-weight="300" letter-spacing="2" fill="#FFFFFF">
                    <tspan x="0" y="58">CRAWLER</tspan>
                </text>
                <g id="logo" transform="translate(1.000000, 0.000000)">
                    <circle id="Oval" fill="#4A90E2" cx="4" cy="20" r="4"></circle>
                    <path d="M52.0559441,2.51547035e-15 C49.8741259,2.51547035e-15 48.027972,1.76223776 48.027972,4.02797203 C48.027972,7.21678322 47.5244755,8.05594406 44,8.05594406 L43.6643357,8.05594406 C41.6503497,8.22377622 40.0559441,9.9020979 40.0559441,12 L40.0559441,12.0839161 C40.0559441,15.1888112 39.4685315,15.9440559 36.027972,15.9440559 C35.8601399,15.9440559 35.6923077,15.9440559 35.6083916,16.027972 C33.5944056,16.2797203 32,17.958042 32,19.972028 C32,22.1538462 33.7622378,24 36.027972,24 C38.1258741,24 39.8881119,22.3216783 39.972028,20.3076923 L39.972028,19.972028 C39.972028,17.1188811 40.8951049,16.027972 43.9160839,15.9440559 L44,15.9440559 C46.0979021,15.9440559 47.8601399,14.2657343 47.9440559,12.1678322 L47.9440559,11.9160839 C47.9440559,8.97902098 48.8671329,7.88811189 51.972028,7.88811189 C54.1538462,7.88811189 56,6.12587413 56,3.86013986 C56,1.76223776 54.2377622,0 52.0559441,0 Z M28.3916084,8.05594406 L28.0559441,8.05594406 C24.5314685,8.05594406 24.027972,7.21678322 24.027972,4.02797203 C24.027972,1.84615385 22.2657343,2.66453526e-15 20,2.66453526e-15 C17.8181818,2.94403196e-15 15.972028,1.76223776 15.972028,4.02797203 C15.972028,7.21678322 15.4685315,7.97202797 11.9440559,7.97202797 L11.6083916,7.97202797 C9.59440559,8.13986014 8,9.81818182 8,11.9160839 C8,14.0979021 9.76223776,15.9440559 12.027972,15.9440559 C14.1258741,15.9440559 15.8881119,14.2657343 15.972028,12.2517483 L15.972028,12 C15.972028,9.06293706 16.8951049,7.97202797 20,7.97202797 C23.1048951,7.97202797 24.027972,9.06293706 24.027972,11.9160839 C24.027972,14.0979021 25.7902098,15.9440559 28.0559441,15.9440559 C30.3216783,15.9440559 32.0839161,14.1818182 32.0839161,11.9160839 C32,9.9020979 30.4055944,8.22377622 28.3916084,8.05594406 Z" id="Shape" fill="#4A90E2" fill-rule="nonzero"></path>
                    <path d="M90.292549,0.653061224 C90.0431373,0.653061224 89.7937255,0.734693878 89.627451,0.979591837 C89.4611765,1.14285714 89.3780392,1.3877551 89.3780392,1.71428571 L89.3780392,20.4081633 L74.8290196,1.14285714 C74.5796078,0.816326531 74.3301961,0.653061224 73.9976471,0.653061224 C73.665098,0.653061224 73.4156863,0.734693878 73.2494118,0.979591837 C73.0831373,1.14285714 73,1.3877551 73,1.71428571 L73,22.9387755 C73,23.2653061 73.0831373,23.5102041 73.2494118,23.6734694 C73.4156863,23.8367347 73.665098,23.9183673 73.9976471,23.9183673 C74.2470588,23.9183673 74.4964706,23.8367347 74.6627451,23.5918367 C74.8290196,23.4285714 74.9121569,23.1836735 74.9121569,22.8571429 L74.9121569,4.24489796 L89.4611765,23.5102041 C89.7105882,23.8367347 90.0431373,24 90.3756863,24 C90.7082353,24 90.9576471,23.9183673 91.1239216,23.6734694 C91.2901961,23.5102041 91.3733333,23.2653061 91.3733333,22.9387755 L91.3733333,1.71428571 C91.3733333,1.3877551 91.2901961,1.14285714 91.1239216,0.979591837 C90.8745098,0.734693878 90.625098,0.653061224 90.292549,0.653061224 Z M166.778824,0 C160.044706,0 154.557647,5.3877551 154.557647,12 C154.557647,18.6122449 160.044706,24 166.778824,24 C173.512941,24 179,18.6122449 179,12 C179,5.3877551 173.512941,0 166.778824,0 Z M166.778824,22.0408163 C161.12549,22.0408163 156.552941,17.5510204 156.552941,12 C156.552941,6.44897959 161.12549,1.95918367 166.778824,1.95918367 C172.432157,1.95918367 177.004706,6.44897959 177.004706,12 C177.004706,17.5510204 172.432157,22.0408163 166.778824,22.0408163 Z M146.576471,0.653061224 C146.327059,0.653061224 146.077647,0.734693878 145.911373,0.979591837 C145.745098,1.14285714 145.661961,1.3877551 145.661961,1.71428571 L145.661961,20.4081633 L131.112941,1.14285714 C130.863529,0.816326531 130.614118,0.653061224 130.281569,0.653061224 C129.94902,0.653061224 129.699608,0.734693878 129.533333,0.979591837 C129.367059,1.14285714 129.283922,1.3877551 129.283922,1.71428571 L129.283922,22.9387755 C129.283922,23.2653061 129.367059,23.5102041 129.533333,23.6734694 C129.699608,23.8367347 129.94902,23.9183673 130.281569,23.9183673 C130.53098,23.9183673 130.780392,23.8367347 130.946667,23.5918367 C131.112941,23.4285714 131.196078,23.1836735 131.196078,22.8571429 L131.196078,4.24489796 L145.745098,23.5102041 C145.99451,23.8367347 146.327059,24 146.659608,24 C146.992157,24 147.241569,23.9183673 147.407843,23.6734694 C147.574118,23.5102041 147.657255,23.2653061 147.657255,22.9387755 L147.657255,1.71428571 C147.657255,1.3877551 147.574118,1.14285714 147.407843,0.979591837 C147.158431,0.734693878 146.90902,0.653061224 146.576471,0.653061224 Z M111.409412,1.30612245 C111.326275,1.06122449 111.16,0.897959184 110.993725,0.816326531 C110.744314,0.653061224 110.578039,0.653061224 110.328627,0.653061224 C109.829804,0.653061224 109.414118,0.897959184 109.247843,1.3877551 L99.5207843,22.7755102 C99.4376471,22.8571429 99.4376471,23.0204082 99.4376471,23.1020408 C99.4376471,23.3469388 99.5207843,23.5918367 99.6870588,23.755102 C99.8533333,23.9183673 100.102745,24 100.352157,24 C100.767843,24 101.100392,23.755102 101.266667,23.3469388 L103.843922,17.6326531 L116.730196,17.6326531 L119.224314,23.3469388 C119.307451,23.5102041 119.473725,23.6734694 119.64,23.8367347 C119.806275,23.9183673 119.972549,24 120.138824,24 C120.388235,24 120.637647,23.9183673 120.803922,23.755102 C120.970196,23.5918367 121.136471,23.4285714 121.136471,23.1836735 C121.136471,23.0204082 121.136471,22.9387755 121.053333,22.7755102 L111.409412,1.30612245 Z M104.592157,15.9183673 L110.24549,3.26530612 L115.898824,15.9183673 L104.592157,15.9183673 Z" id="Shape" fill="#FFFFFF" fill-rule="nonzero"></path>
                </g>
            </g>
        </g>
    </g>
</svg>